<mxfile host="Electron" modified="2023-11-03T12:07:01.886Z" agent="Mozilla/5.0 (Windows NT 10.0; Win64; x64) AppleWebKit/537.36 (KHTML, like Gecko) draw.io/21.2.8 Chrome/112.0.5615.165 Electron/24.2.0 Safari/537.36" etag="22Zw_UqvFHOiQth5tMSi" version="21.2.8" type="device">
  <diagram name="Page-1" id="Zy2wtVYq44WXkhXmX46X">
    <mxGraphModel dx="1707" dy="659" grid="1" gridSize="10" guides="1" tooltips="1" connect="1" arrows="1" fold="1" page="1" pageScale="1" pageWidth="827" pageHeight="1169" math="0" shadow="0">
      <root>
        <mxCell id="0" />
        <mxCell id="1" parent="0" />
        <mxCell id="jv_uzxQNWgf5hVna08pj-1" value="&lt;font style=&quot;font-size: 14px;&quot;&gt;type&lt;br&gt;4 bit&lt;/font&gt;" style="rounded=0;whiteSpace=wrap;html=1;strokeWidth=2;fillColor=#dae8fc;strokeColor=#141415;" vertex="1" parent="1">
          <mxGeometry x="-161" y="230" width="80" height="40" as="geometry" />
        </mxCell>
        <mxCell id="jv_uzxQNWgf5hVna08pj-2" value="&lt;font style=&quot;font-size: 14px;&quot;&gt;encoding&lt;br&gt;4 bit&lt;/font&gt;" style="rounded=0;whiteSpace=wrap;html=1;strokeWidth=2;fillColor=#dae8fc;strokeColor=#000000;" vertex="1" parent="1">
          <mxGeometry x="-161" y="270" width="80" height="40" as="geometry" />
        </mxCell>
        <mxCell id="jv_uzxQNWgf5hVna08pj-3" value="&lt;font style=&quot;font-size: 14px;&quot;&gt;iru&lt;br&gt;3 byte&lt;/font&gt;" style="rounded=0;whiteSpace=wrap;html=1;strokeWidth=2;fillColor=#dae8fc;strokeColor=#000000;" vertex="1" parent="1">
          <mxGeometry x="-161" y="310" width="80" height="40" as="geometry" />
        </mxCell>
        <mxCell id="jv_uzxQNWgf5hVna08pj-4" value="&lt;font style=&quot;font-size: 14px;&quot;&gt;refcount&lt;br&gt;4 byte&lt;/font&gt;" style="rounded=0;whiteSpace=wrap;html=1;strokeWidth=2;fillColor=#dae8fc;strokeColor=#000000;" vertex="1" parent="1">
          <mxGeometry x="-161" y="350" width="80" height="40" as="geometry" />
        </mxCell>
        <mxCell id="jv_uzxQNWgf5hVna08pj-13" style="edgeStyle=orthogonalEdgeStyle;rounded=0;orthogonalLoop=1;jettySize=auto;html=1;exitX=1;exitY=0.5;exitDx=0;exitDy=0;" edge="1" parent="1" source="jv_uzxQNWgf5hVna08pj-5" target="jv_uzxQNWgf5hVna08pj-8">
          <mxGeometry relative="1" as="geometry" />
        </mxCell>
        <mxCell id="jv_uzxQNWgf5hVna08pj-5" value="&lt;font style=&quot;font-size: 14px;&quot;&gt;*ptr&lt;br&gt;8 byte&lt;/font&gt;" style="rounded=0;whiteSpace=wrap;html=1;strokeWidth=2;fillColor=#f5f5f5;strokeColor=#1a1919;fontColor=#333333;" vertex="1" parent="1">
          <mxGeometry x="-161" y="390" width="80" height="40" as="geometry" />
        </mxCell>
        <mxCell id="jv_uzxQNWgf5hVna08pj-6" value="" style="shape=curlyBracket;whiteSpace=wrap;html=1;rounded=1;labelPosition=left;verticalLabelPosition=middle;align=right;verticalAlign=middle;size=0.5;strokeWidth=2;" vertex="1" parent="1">
          <mxGeometry x="-183" y="230" width="20" height="160" as="geometry" />
        </mxCell>
        <mxCell id="jv_uzxQNWgf5hVna08pj-7" value="&lt;font style=&quot;font-size: 14px;&quot;&gt;meta&lt;br&gt;8byte&lt;/font&gt;" style="text;html=1;align=center;verticalAlign=middle;resizable=0;points=[];autosize=1;strokeColor=none;fillColor=none;" vertex="1" parent="1">
          <mxGeometry x="-247" y="285" width="60" height="50" as="geometry" />
        </mxCell>
        <mxCell id="jv_uzxQNWgf5hVna08pj-8" value="&lt;span style=&quot;font-size: 14px;&quot;&gt;len&lt;br&gt;&lt;/span&gt;5" style="rounded=0;whiteSpace=wrap;html=1;strokeWidth=2;fillColor=#f8cecc;strokeColor=#000000;" vertex="1" parent="1">
          <mxGeometry x="-28" y="390" width="80" height="40" as="geometry" />
        </mxCell>
        <mxCell id="jv_uzxQNWgf5hVna08pj-9" value="&lt;span style=&quot;font-size: 14px;&quot;&gt;alloc&lt;br&gt;8&lt;br&gt;&lt;/span&gt;" style="rounded=0;whiteSpace=wrap;html=1;strokeWidth=2;fillColor=#f8cecc;strokeColor=#000000;" vertex="1" parent="1">
          <mxGeometry x="-28" y="430" width="80" height="40" as="geometry" />
        </mxCell>
        <mxCell id="jv_uzxQNWgf5hVna08pj-10" value="&lt;span style=&quot;font-size: 14px;&quot;&gt;flags&lt;br&gt;&lt;/span&gt;1" style="rounded=0;whiteSpace=wrap;html=1;strokeWidth=2;fillColor=#f8cecc;strokeColor=#000000;" vertex="1" parent="1">
          <mxGeometry x="-28" y="470" width="80" height="40" as="geometry" />
        </mxCell>
        <mxCell id="jv_uzxQNWgf5hVna08pj-24" style="edgeStyle=orthogonalEdgeStyle;rounded=0;orthogonalLoop=1;jettySize=auto;html=1;exitX=1;exitY=0.5;exitDx=0;exitDy=0;" edge="1" parent="1" source="jv_uzxQNWgf5hVna08pj-11" target="jv_uzxQNWgf5hVna08pj-14">
          <mxGeometry relative="1" as="geometry" />
        </mxCell>
        <mxCell id="jv_uzxQNWgf5hVna08pj-11" value="&lt;span style=&quot;font-size: 14px;&quot;&gt;buf&lt;/span&gt;" style="rounded=0;whiteSpace=wrap;html=1;strokeWidth=2;fillColor=#f8cecc;strokeColor=#000000;" vertex="1" parent="1">
          <mxGeometry x="-28" y="510" width="80" height="40" as="geometry" />
        </mxCell>
        <mxCell id="jv_uzxQNWgf5hVna08pj-14" value="&lt;span style=&quot;font-size: 14px;&quot;&gt;&#39;r&#39;&lt;/span&gt;" style="rounded=0;whiteSpace=wrap;html=1;strokeWidth=2;fillColor=#f8cecc;strokeColor=#000000;" vertex="1" parent="1">
          <mxGeometry x="100" y="510" width="50" height="40" as="geometry" />
        </mxCell>
        <mxCell id="jv_uzxQNWgf5hVna08pj-15" value="&lt;span style=&quot;font-size: 14px;&quot;&gt;&#39;e&#39;&lt;/span&gt;" style="rounded=0;whiteSpace=wrap;html=1;strokeWidth=2;fillColor=#f8cecc;strokeColor=#000000;" vertex="1" parent="1">
          <mxGeometry x="150" y="510" width="51" height="40" as="geometry" />
        </mxCell>
        <mxCell id="jv_uzxQNWgf5hVna08pj-16" value="&lt;span style=&quot;font-size: 14px;&quot;&gt;&#39;d&#39;&lt;/span&gt;" style="rounded=0;whiteSpace=wrap;html=1;strokeWidth=2;fillColor=#f8cecc;strokeColor=#000000;" vertex="1" parent="1">
          <mxGeometry x="198" y="510" width="50" height="40" as="geometry" />
        </mxCell>
        <mxCell id="jv_uzxQNWgf5hVna08pj-17" value="&lt;span style=&quot;font-size: 14px;&quot;&gt;&#39;i&#39;&lt;/span&gt;" style="rounded=0;whiteSpace=wrap;html=1;strokeWidth=2;fillColor=#f8cecc;strokeColor=#000000;" vertex="1" parent="1">
          <mxGeometry x="247" y="510" width="50" height="40" as="geometry" />
        </mxCell>
        <mxCell id="jv_uzxQNWgf5hVna08pj-20" value="&lt;span style=&quot;font-size: 14px;&quot;&gt;&#39;s&#39;&lt;/span&gt;" style="rounded=0;whiteSpace=wrap;html=1;strokeWidth=2;fillColor=#f8cecc;strokeColor=#000000;" vertex="1" parent="1">
          <mxGeometry x="296" y="510" width="50" height="40" as="geometry" />
        </mxCell>
        <mxCell id="jv_uzxQNWgf5hVna08pj-21" value="&lt;span style=&quot;font-size: 14px;&quot;&gt;&#39;\0&#39;&lt;/span&gt;" style="rounded=0;whiteSpace=wrap;html=1;strokeWidth=2;fillColor=#F19C99;strokeColor=#330000;" vertex="1" parent="1">
          <mxGeometry x="346" y="510" width="51" height="40" as="geometry" />
        </mxCell>
        <mxCell id="jv_uzxQNWgf5hVna08pj-22" value="" style="rounded=0;whiteSpace=wrap;html=1;strokeWidth=2;" vertex="1" parent="1">
          <mxGeometry x="394" y="510" width="50" height="40" as="geometry" />
        </mxCell>
        <mxCell id="jv_uzxQNWgf5hVna08pj-23" value="" style="rounded=0;whiteSpace=wrap;html=1;strokeWidth=2;" vertex="1" parent="1">
          <mxGeometry x="443" y="510" width="50" height="40" as="geometry" />
        </mxCell>
        <mxCell id="jv_uzxQNWgf5hVna08pj-25" value="&lt;b&gt;&lt;font style=&quot;font-size: 14px;&quot;&gt;RedisObject&lt;/font&gt;&lt;/b&gt;" style="text;html=1;align=center;verticalAlign=middle;resizable=0;points=[];autosize=1;strokeColor=none;fillColor=none;" vertex="1" parent="1">
          <mxGeometry x="-179" y="200" width="110" height="30" as="geometry" />
        </mxCell>
        <mxCell id="jv_uzxQNWgf5hVna08pj-26" value="&lt;b&gt;&lt;font style=&quot;font-size: 14px;&quot;&gt;SDS&lt;/font&gt;&lt;/b&gt;" style="text;html=1;align=center;verticalAlign=middle;resizable=0;points=[];autosize=1;strokeColor=none;fillColor=none;" vertex="1" parent="1">
          <mxGeometry x="-14" y="360" width="50" height="30" as="geometry" />
        </mxCell>
      </root>
    </mxGraphModel>
  </diagram>
</mxfile>
